<svg width="82" height="82" viewBox="0 0 82 82" fill="none" xmlns="http://www.w3.org/2000/svg">
<path d="M79.8365 37.0624L44.3045 1.53307C43.3548 0.586096 42.0442 0 40.5953 0C39.1463 0 37.8357 0.586096 36.886 1.53307L29.5246 8.90811L38.8831 18.2666C39.4801 18.0577 40.1665 17.9383 40.8829 17.9383C44.3262 17.9383 47.1156 20.7277 47.1156 24.171C47.1156 24.9009 46.9908 25.5983 46.7601 26.2495L46.7737 26.2061L55.7876 35.2254C56.39 35.0111 57.0874 34.8863 57.8118 34.8863C61.2524 34.8863 64.0418 37.6756 64.0418 41.1162C64.0418 44.5568 61.2524 47.3462 57.8118 47.3462C54.3712 47.3462 51.5818 44.5568 51.5818 41.1162C51.5818 40.2669 51.7528 39.4583 52.0594 38.7203L52.0431 38.761L43.6044 30.3657V52.4908C45.6775 53.5355 47.0749 55.6465 47.0749 58.0832C47.0749 61.5292 44.2801 64.324 40.834 64.324C37.388 64.324 34.5932 61.5292 34.5932 58.0832C34.5932 56.3629 35.2878 54.8081 36.4139 53.6793C36.9864 53.1068 37.6675 52.6428 38.4245 52.3172L38.4652 52.3009V29.9587C36.1806 28.9982 34.6068 26.7759 34.6068 24.19C34.6068 23.3217 34.7832 22.4968 35.1033 21.7452L35.0871 21.7859L25.8913 12.5468L1.52493 36.8969C0.580669 37.8493 0 39.1599 0 40.6088C0 42.0578 0.583382 43.3684 1.52765 44.3208L37.0624 79.8447C38.0094 80.7944 39.32 81.3805 40.7689 81.3805C42.2179 81.3805 43.5257 80.7944 44.4754 79.8447L79.842 44.4781C80.7917 43.5312 81.3805 42.2179 81.3805 40.7716C81.3805 39.3254 80.7917 38.0121 79.842 37.0651L79.8365 37.0624Z" fill="#FF3800"/>
</svg>
