<svg width="77" height="75" viewBox="0 0 77 75" fill="none" xmlns="http://www.w3.org/2000/svg">
<path fill-rule="evenodd" clip-rule="evenodd" d="M38.4485 0C17.2057 0 0 17.2057 0 38.4485C0 55.462 11.0059 69.8321 26.2892 74.9265C28.2116 75.263 28.9325 74.1095 28.9325 73.1003C28.9325 72.1871 28.8845 69.1593 28.8845 65.9392C19.2243 67.7175 16.7251 63.5842 15.9561 61.4215C15.5236 60.3161 13.6492 56.9038 12.0152 55.9907C10.6695 55.2697 8.74704 53.4915 11.9671 53.4434C14.9949 53.3954 17.1577 56.231 17.8786 57.3844C21.3389 63.1998 26.8659 61.5657 29.0767 60.5564C29.4131 58.0573 30.4224 56.3751 31.5278 55.4139C22.973 54.4527 14.0337 51.1365 14.0337 36.43C14.0337 32.2487 15.5236 28.7883 17.9747 26.0969C17.5902 25.1357 16.2445 21.1947 18.3592 15.9081C18.3592 15.9081 21.5792 14.8988 28.9325 19.849C32.0084 18.984 35.2765 18.5514 38.5446 18.5514C41.8128 18.5514 45.0809 18.984 48.1568 19.849C55.5101 14.8507 58.7301 15.9081 58.7301 15.9081C60.8448 21.1947 59.4991 25.1357 59.1146 26.0969C61.5657 28.7883 63.0556 32.2006 63.0556 36.43C63.0556 51.1846 54.0682 54.4527 45.5134 55.4139C46.9072 56.6154 48.1087 58.9224 48.1087 62.5269C48.1087 67.6694 48.0607 71.8026 48.0607 73.1003C48.0607 74.1095 48.7816 75.311 50.704 74.9265C58.3368 72.3497 64.9692 67.4445 69.668 60.9005C74.3668 54.357 76.8951 46.5046 76.897 38.4485C76.897 17.2057 59.6913 0 38.4485 0Z" fill="white"/>
</svg>
