<svg width="84" height="82" viewBox="0 0 84 82" fill="none" xmlns="http://www.w3.org/2000/svg">
<path fill-rule="evenodd" clip-rule="evenodd" d="M41.5629 0C18.5994 0 0 18.5994 0 41.5629C0 59.9545 11.8974 75.4886 28.4186 80.9957C30.4968 81.3594 31.2761 80.1125 31.2761 79.0215C31.2761 78.0344 31.2241 74.7613 31.2241 71.2804C20.7815 73.2027 18.0799 68.7347 17.2486 66.3968C16.781 65.2018 14.7548 61.5131 12.9884 60.526C11.5337 59.7467 9.45557 57.8244 12.9365 57.7725C16.2095 57.7205 18.5475 60.7858 19.3268 62.0326C23.0674 68.319 29.0421 66.5526 31.432 65.4616C31.7956 62.76 32.8867 60.9416 34.0816 59.9026C24.8338 58.8635 15.1705 55.2787 15.1705 39.3809C15.1705 34.8609 16.781 31.1202 19.4307 28.2108C19.015 27.1718 17.5603 22.9116 19.8463 17.1967C19.8463 17.1967 23.3272 16.1056 31.2761 21.4569C34.6011 20.5217 38.134 20.0541 41.6668 20.0541C45.1997 20.0541 48.7325 20.5217 52.0576 21.4569C60.0065 16.0537 63.4874 17.1967 63.4874 17.1967C65.7733 22.9116 64.3186 27.1718 63.903 28.2108C66.5526 31.1202 68.1632 34.8089 68.1632 39.3809C68.1632 55.3306 58.4479 58.8635 49.2001 59.9026C50.7068 61.2014 52.0056 63.6952 52.0056 67.5917C52.0056 73.1507 51.9536 77.6187 51.9536 79.0215C51.9536 80.1125 52.733 81.4114 54.8111 80.9957C63.0622 78.2102 70.2318 72.9076 75.3112 65.8336C80.3906 58.76 83.1238 50.2716 83.1258 41.5629C83.1258 18.5994 64.5264 0 41.5629 0Z" fill="white"/>
</svg>
