<svg width="84" height="76" viewBox="0 0 84 76" fill="none" xmlns="http://www.w3.org/2000/svg">
<path d="M69.0649 24.3601C68.1935 24.0585 67.2905 23.7731 66.3608 23.5032C66.5136 22.876 66.6539 22.257 66.7786 21.6484C68.8255 11.6564 67.4871 3.60673 62.9171 0.956435C58.535 -1.58484 51.3684 1.06485 44.1305 7.39932C43.4345 8.00844 42.7365 8.65335 42.0389 9.32923C41.574 8.88205 41.1099 8.44991 40.647 8.03656C33.0615 1.26333 25.4581 -1.59101 20.8926 1.06695C16.5147 3.6156 15.2182 11.1831 17.0607 20.6526C17.2386 21.5672 17.4466 22.5013 17.6818 23.451C16.6057 23.7582 15.5669 24.0857 14.5729 24.4341C5.67962 27.5521 0 32.4389 0 37.5078C0 42.743 6.09708 47.9939 15.3601 51.1779C16.0911 51.4291 16.8496 51.6667 17.6313 51.8922C17.3775 52.9194 17.1568 53.9259 16.9716 54.9076C15.2147 64.2128 16.5867 71.6015 20.953 74.134C25.4629 76.7494 33.0319 74.0611 40.4021 67.5823C40.9846 67.0701 41.5692 66.527 42.1549 65.9578C42.914 66.6929 43.6719 67.3886 44.4258 68.0412C51.5647 74.2191 58.6156 76.7138 62.9778 74.1742C67.4832 71.5512 68.9475 63.6141 67.0465 53.9572C66.9013 53.2196 66.7324 52.4662 66.5426 51.6993C67.0742 51.5413 67.596 51.3781 68.1048 51.2085C77.7346 47.9999 84 42.8129 84 37.5078C84 32.4206 78.1372 27.5009 69.0649 24.3601ZM66.9762 47.7831C66.5169 47.936 66.0456 48.0839 65.5654 48.2271C64.5023 44.8426 63.0675 41.2437 61.3117 37.5254C62.9872 33.8956 64.3665 30.3427 65.3999 26.9802C66.2591 27.2302 67.0932 27.4939 67.8968 27.7723C75.67 30.4633 80.4115 34.442 80.4115 37.5078C80.4115 40.7734 75.2908 45.0125 66.9762 47.7831ZM63.5262 54.658C64.3668 58.9282 64.4869 62.7889 63.9301 65.8069C63.4298 68.5189 62.4237 70.327 61.1797 71.0511C58.5324 72.5921 52.8714 70.5891 46.7661 65.3056C46.0662 64.7 45.3612 64.0533 44.654 63.3688C47.0208 60.7656 49.3864 57.7392 51.6951 54.3782C55.7559 54.0158 59.5924 53.4234 63.0715 52.6146C63.2429 53.3097 63.3951 53.9914 63.5262 54.658ZM28.6375 70.7848C26.0511 71.7034 23.9912 71.7297 22.746 71.0077C20.0964 69.4708 18.9949 63.5384 20.4974 55.5806C20.6695 54.6693 20.8743 53.7331 21.1104 52.7762C24.5514 53.5414 28.3598 54.092 32.4303 54.4239C34.7546 57.7128 37.1885 60.7358 39.6412 63.3828C39.1053 63.9031 38.5715 64.3983 38.0407 64.8651C34.7817 67.7299 31.5157 69.7625 28.6375 70.7848ZM16.5206 47.7631C12.4247 46.3553 9.04215 44.5255 6.72356 42.5288C4.64017 40.7346 3.5883 38.9532 3.5883 37.5078C3.5883 34.4318 8.14848 30.5084 15.7541 27.8417C16.6769 27.5181 17.6429 27.2132 18.6455 26.9268C19.6966 30.3653 21.0754 33.9603 22.7394 37.5956C21.0539 41.2849 19.6555 44.9372 18.594 48.416C17.8793 48.2094 17.1869 47.992 16.5206 47.7631ZM20.5823 19.9596C19.0037 11.8463 20.0521 5.72594 22.6904 4.19013C25.5006 2.55404 31.7147 4.88676 38.2643 10.7351C38.6829 11.1089 39.1032 11.5002 39.5247 11.9049C37.0841 14.5403 34.6725 17.5407 32.3689 20.8102C28.4183 21.1784 24.6367 21.7699 21.1598 22.562C20.9412 21.6778 20.7475 20.809 20.5823 19.9596ZM56.8161 28.9571C55.9849 27.5133 55.1316 26.1037 54.2617 24.7325C56.9419 25.0733 59.5097 25.5255 61.9211 26.079C61.1972 28.4124 60.2948 30.852 59.2326 33.353C58.4707 31.8982 57.6648 30.4314 56.8161 28.9571ZM42.0401 14.484C43.6952 16.2873 45.3528 18.3006 46.9832 20.4851C45.3402 20.407 43.677 20.3664 42 20.3664C40.3388 20.3664 38.6879 20.4061 37.0551 20.4828C38.6871 18.3187 40.359 16.308 42.0401 14.484ZM27.1694 28.9821C26.3391 30.4299 25.5481 31.8887 24.7982 33.3503C23.7532 30.858 22.8592 28.4072 22.1289 26.0408C24.5256 25.5015 27.0813 25.0605 29.7444 24.7262C28.8622 26.11 28.0019 27.5303 27.1694 28.9821ZM29.8211 50.5468C27.0696 50.2381 24.4755 49.8198 22.0795 49.2953C22.8214 46.8867 23.7351 44.3836 24.8022 41.8376C25.5541 43.2981 26.3482 44.7575 27.1836 46.2085C28.0345 47.6867 28.9162 49.1347 29.8211 50.5468ZM42.1394 60.786C40.4386 58.9406 38.7421 56.8993 37.0853 54.7036C38.6937 54.767 40.3335 54.7995 42 54.7995C43.7121 54.7995 45.4047 54.7607 47.0706 54.6861C45.4349 56.9214 43.7833 58.9659 42.1394 60.786ZM59.2669 41.7079C60.3896 44.2813 61.3361 46.7713 62.0876 49.1389C59.652 49.6977 57.0225 50.1477 54.2519 50.4821C55.1239 49.0925 55.9846 47.6586 56.8305 46.1837C57.6862 44.6915 58.4987 43.1971 59.2669 41.7079ZM53.7221 44.3809C52.4091 46.6704 51.061 48.8561 49.6924 50.9192C47.1998 51.0985 44.6247 51.1908 42 51.1908C39.386 51.1908 36.8432 51.1091 34.3947 50.9493C32.971 48.8591 31.5936 46.667 30.2889 44.4006C28.9877 42.1403 27.7903 39.861 26.7051 37.5944C27.79 35.3226 28.9845 33.0407 30.2783 30.7845L30.278 30.7849C31.5752 28.5227 32.9405 26.3413 34.3511 24.2641C36.8492 24.0742 39.4109 23.9752 41.9998 23.9752C44.6004 23.9752 47.1656 24.075 49.663 24.2666C51.052 26.3285 52.408 28.5029 53.7103 30.7654C55.0274 33.0533 56.2373 35.32 57.3315 37.5431C56.2406 39.8044 55.0334 42.094 53.7221 44.3809ZM61.1247 4.08278C63.9376 5.71406 65.0314 12.293 63.2641 20.9201C63.1514 21.4706 63.0244 22.0313 62.8866 22.5995C59.4016 21.7908 55.6173 21.1891 51.6552 20.8153C49.3471 17.5099 46.9552 14.5049 44.5544 11.9033C45.1999 11.2788 45.8444 10.6834 46.4863 10.1215C52.6878 4.69415 58.4839 2.55133 61.1247 4.08278ZM42 29.9645C46.1426 29.9645 49.5009 33.3417 49.5009 37.5078C49.5009 41.6737 46.1426 45.051 42 45.051C37.8574 45.051 34.4991 41.6737 34.4991 37.5078C34.4991 33.3417 37.8574 29.9645 42 29.9645Z" fill="#0074A6"/>
</svg>
