<svg width="73" height="65" viewBox="0 0 73 65" fill="none" xmlns="http://www.w3.org/2000/svg">
<path d="M59.7305 21.0677C58.9768 20.8069 58.1959 20.56 57.3919 20.3266C57.524 19.7842 57.6453 19.2488 57.7532 18.7226C59.5234 10.081 58.366 3.11926 54.4136 0.827169C50.6237 -1.37065 44.4258 0.920929 38.1661 6.39928C37.5641 6.92607 36.9605 7.48381 36.3572 8.06835C35.9551 7.6816 35.5537 7.30787 35.1534 6.95039C28.5931 1.09258 22.0174 -1.37598 18.0689 0.922749C14.2826 3.12694 13.1614 9.67161 14.7549 17.8613C14.9088 18.6523 15.0886 19.4602 15.292 20.2815C14.3614 20.5472 13.4629 20.8304 12.6033 21.1317C4.912 23.8283 0 28.0547 0 32.4385C0 36.9661 5.27304 41.5074 13.2841 44.261C13.9163 44.4783 14.5723 44.6837 15.2483 44.8788C15.0289 45.7671 14.838 46.6376 14.6778 47.4866C13.1584 55.5342 14.345 61.9242 18.1211 64.1145C22.0215 66.3764 28.5675 64.0514 34.9416 58.4483C35.4454 58.0053 35.951 57.5356 36.4575 57.0433C37.114 57.6791 37.7695 58.2808 38.4215 58.8451C44.5955 64.1881 50.6934 66.3456 54.4661 64.1492C58.3626 61.8808 59.629 55.0164 57.9849 46.6646C57.8593 46.0268 57.7132 45.3751 57.5491 44.7119C58.0088 44.5753 58.4601 44.4342 58.9002 44.2875C67.2284 41.5126 72.6471 37.0265 72.6471 32.4385C72.6471 28.0388 67.5767 23.784 59.7305 21.0677ZM57.9241 41.325C57.5269 41.4573 57.1193 41.5851 56.7039 41.709C55.7845 38.782 54.5437 35.6694 53.0252 32.4537C54.4742 29.3145 55.6671 26.2418 56.5608 23.3337C57.3039 23.5499 58.0252 23.778 58.7203 24.0187C65.4429 26.3461 69.5436 29.7871 69.5436 32.4385C69.5436 35.2627 65.115 38.9289 57.9241 41.325ZM54.9404 47.2708C55.6674 50.9638 55.7712 54.3027 55.2897 56.9129C54.857 59.2583 53.9869 60.822 52.911 61.4483C50.6215 62.7809 45.7256 61.0487 40.4454 56.4793C39.8401 55.9555 39.2304 55.3962 38.6188 54.8043C40.6658 52.5529 42.7116 49.9355 44.7083 47.0287C48.2203 46.7153 51.5382 46.203 54.5472 45.5035C54.6954 46.1047 54.827 46.6943 54.9404 47.2708ZM24.767 61.218C22.5302 62.0124 20.7487 62.0352 19.6718 61.4107C17.3803 60.0816 16.4276 54.9509 17.7271 48.0687C17.8759 47.2805 18.0531 46.4709 18.2573 45.6433C21.2332 46.3051 24.5269 46.7813 28.0473 47.0683C30.0574 49.9127 32.1623 52.5271 34.2835 54.8164C33.8201 55.2663 33.3584 55.6946 32.8994 56.0983C30.0808 58.5759 27.2563 60.3338 24.767 61.218ZM14.2878 41.3077C10.7455 40.0902 7.82007 38.5077 5.81485 36.7809C4.01303 35.2291 3.10333 33.6885 3.10333 32.4385C3.10333 29.7782 7.04718 26.3851 13.6248 24.0788C14.4229 23.799 15.2584 23.5352 16.1254 23.2875C17.0345 26.2613 18.227 29.3704 19.6661 32.5144C18.2084 35.7051 16.9989 38.8638 16.081 41.8724C15.4629 41.6937 14.864 41.5057 14.2878 41.3077ZM17.8005 17.2619C16.4353 10.2452 17.342 4.95205 19.6237 3.62382C22.0541 2.20885 27.4284 4.2263 33.0927 9.28422C33.4548 9.6075 33.8183 9.94587 34.1828 10.2959C32.072 12.5752 29.9864 15.17 27.9941 17.9976C24.5775 18.3161 21.3069 18.8276 18.2999 19.5127C18.1109 18.7479 17.9434 17.9965 17.8005 17.2619ZM49.1372 25.0434C48.4184 23.7948 47.6804 22.5757 46.928 21.3898C49.2459 21.6845 51.4667 22.0757 53.5523 22.5543C52.9261 24.5723 52.1457 26.6822 51.2271 28.8452C50.5681 27.587 49.8712 26.3185 49.1372 25.0434ZM36.3582 12.5264C37.7897 14.086 39.2232 15.8272 40.6332 17.7164C39.2123 17.649 37.7739 17.6138 36.3235 17.6138C34.8869 17.6138 33.459 17.6482 32.047 17.7145C33.4584 15.8428 34.9043 14.1039 36.3582 12.5264ZM23.4973 25.065C22.7793 26.3172 22.0952 27.5788 21.4466 28.8428C20.5428 26.6874 19.7697 24.5679 19.1381 22.5213C21.2108 22.0549 23.4212 21.6734 25.7243 21.3844C24.9614 22.5811 24.2173 23.8095 23.4973 25.065ZM25.7906 43.7152C23.4111 43.4482 21.1675 43.0864 19.0953 42.6329C19.737 40.5497 20.5272 38.385 21.4501 36.1831C22.1004 37.4462 22.7871 38.7084 23.5096 39.9633C24.2455 41.2417 25.0081 42.494 25.7906 43.7152ZM36.444 52.5706C34.9731 50.9746 33.506 49.2091 32.0731 47.3102C33.4641 47.365 34.8822 47.3931 36.3235 47.3931C37.8043 47.3931 39.2681 47.3596 40.7088 47.2951C39.2942 49.2282 37.8658 50.9964 36.444 52.5706ZM51.2567 36.0709C52.2277 38.2965 53.0463 40.45 53.6962 42.4976C51.5898 42.9808 49.3156 43.3701 46.9195 43.6593C47.6737 42.4574 48.4181 41.2174 49.1496 39.9418C49.8897 38.6513 50.5923 37.3588 51.2567 36.0709ZM46.4614 38.3826C45.3258 40.3627 44.1599 42.253 42.9763 44.0373C40.8206 44.1923 38.5934 44.2721 36.3235 44.2721C34.0628 44.2721 31.8637 44.2015 29.7461 44.0633C28.5148 42.2556 27.3236 40.3597 26.1953 38.3996C25.0699 36.4449 24.0343 34.4736 23.0958 32.5134C24.0341 30.5486 25.0672 28.5751 26.1861 26.6238L26.1858 26.6242C27.3077 24.6678 28.4885 22.7811 29.7084 20.9847C31.8689 20.8205 34.0844 20.7348 36.3234 20.7348C38.5725 20.7348 40.791 20.8212 42.9508 20.9868C44.1521 22.7701 45.3249 24.6506 46.4511 26.6073C47.5902 28.586 48.6366 30.5464 49.5829 32.469C48.6395 34.4247 47.5954 36.4048 46.4614 38.3826ZM52.8634 3.53097C55.2961 4.94178 56.2422 10.6316 54.7137 18.0926C54.6162 18.5687 54.5064 19.0536 54.3872 19.5451C51.3732 18.8457 48.1004 18.3253 44.6738 18.002C42.6776 15.1433 40.609 12.5445 38.5327 10.2945C39.0909 9.75445 39.6484 9.23949 40.2035 8.75353C45.5668 4.05972 50.5795 2.20651 52.8634 3.53097ZM36.3235 25.9147C39.9062 25.9147 42.8107 28.8354 42.8107 32.4385C42.8107 36.0414 39.9062 38.9622 36.3235 38.9622C32.7408 38.9622 29.8364 36.0414 29.8364 32.4385C29.8364 28.8354 32.7408 25.9147 36.3235 25.9147Z" fill="#0074A6"/>
</svg>
