<svg width="75" height="75" viewBox="0 0 75 75" fill="none" xmlns="http://www.w3.org/2000/svg">
<circle cx="37.5" cy="37.5" r="37.5" fill="white"/>
<path fill-rule="evenodd" clip-rule="evenodd" d="M37.5 19C29.3667 19 24.2833 23.1111 22.25 31.3333C25.3 27.2222 28.8583 25.6806 32.925 26.7083C35.2453 27.2942 36.9036 28.9969 38.7392 30.88C41.7293 33.9485 45.1905 37.5 52.75 37.5C60.8833 37.5 65.9667 33.3889 68 25.1667C64.95 29.2778 61.3917 30.8194 57.325 29.7917C55.0047 29.2058 53.3464 27.5031 51.5108 25.62C48.5207 22.5515 45.0595 19 37.5 19ZM22.25 37.5C14.1167 37.5 9.03333 41.6111 7 49.8333C10.05 45.7222 13.6083 44.1806 17.675 45.2083C19.9953 45.7953 21.6536 47.4968 23.4892 49.38C26.4793 52.4485 29.9405 56 37.5 56C45.6333 56 50.7167 51.8889 52.75 43.6667C49.7 47.7778 46.1417 49.3194 42.075 48.2917C39.7547 47.7058 38.0964 46.0031 36.2608 44.12C33.2707 41.0515 29.8095 37.5 22.25 37.5Z" fill="#38BDF8"/>
</svg>
