<svg width="81" height="50" viewBox="0 0 81 50" fill="none" xmlns="http://www.w3.org/2000/svg">
<path fill-rule="evenodd" clip-rule="evenodd" d="M40.5 0C29.7 0 22.95 5.45455 20.25 16.3636C24.3 10.9091 29.025 8.86364 34.425 10.2273C37.506 11.0045 39.708 13.2636 42.1455 15.7621C46.116 19.8333 50.712 24.5455 60.75 24.5455C71.55 24.5455 78.3 19.0909 81 8.18182C76.95 13.6364 72.225 15.6818 66.825 14.3182C63.744 13.5409 61.542 11.2818 59.1045 8.78333C55.134 4.71212 50.538 0 40.5 0ZM20.25 24.5455C9.45 24.5455 2.7 30 0 40.9091C4.05 35.4545 8.775 33.4091 14.175 34.7727C17.256 35.5515 19.458 37.8091 21.8955 40.3076C25.866 44.3788 30.462 49.0909 40.5 49.0909C51.3 49.0909 58.05 43.6364 60.75 32.7273C56.7 38.1818 51.975 40.2273 46.575 38.8636C43.494 38.0864 41.292 35.8273 38.8545 33.3288C34.884 29.2576 30.288 24.5455 20.25 24.5455Z" fill="#38BDF8"/>
</svg>
